<svg preserveAspectRatio="none" overflow="visible" style="display: block;" width="20" height="20" viewBox="0 0 20 20" fill="none" xmlns="http://www.w3.org/2000/svg">
<g id="Icon/Editor">
<path id="Union" fill-rule="evenodd" clip-rule="evenodd" d="M10.6252 1.875C11.4902 1.87513 12.2168 2.46149 12.433 3.25806C12.6472 3.17293 12.8807 3.125 13.1252 3.125C14.0616 3.12514 14.8347 3.81229 14.9745 4.70947C16.222 4.5149 17.5002 5.45449 17.5002 6.875V11.4734C17.5002 15.1467 14.5218 18.1249 10.8486 18.125C8.18807 18.1249 5.7834 16.5396 4.73528 14.0942L3.08489 10.2429C2.65471 9.2387 3.08183 8.07282 4.05901 7.58423C4.7939 7.21698 5.64248 7.33071 6.25018 7.80396V5C6.25021 3.96454 7.0897 3.12506 8.12517 3.125C8.36928 3.12504 8.60221 3.17315 8.81609 3.25806C9.03228 2.46128 9.75997 1.875 10.6252 1.875ZM10.6252 3.125C10.28 3.125 10.0002 3.40482 10.0002 3.75V9.375L9.98797 9.50073C9.92987 9.78565 9.67722 9.99986 9.37517 10C9.03 10 8.75017 9.72018 8.75017 9.375V5L8.73797 4.87427C8.67981 4.58943 8.42716 4.37514 8.12517 4.375C7.78003 4.37502 7.50021 4.65487 7.50017 5V10C7.50018 10.2896 7.30091 10.541 7.01922 10.6079C6.73715 10.6745 6.44575 10.5387 6.31609 10.2795L5.7094 9.06616C5.50842 8.6646 5.01983 8.5018 4.6181 8.70239C4.23279 8.89505 4.06389 9.35502 4.23357 9.75098L5.57513 12.8784L5.88396 13.6011C6.73507 15.5869 8.68804 16.8749 10.8486 16.875C13.8315 16.8749 16.2502 14.4563 16.2502 11.4734V6.875C16.2502 6.20234 15.581 5.78048 15.0002 5.98877V9.375C15.0002 9.72009 14.7202 9.99986 14.3752 10C14.03 10 13.7502 9.72018 13.7502 9.375V5C13.7501 4.65497 13.4702 4.37515 13.1252 4.375C12.78 4.375 12.5003 4.65488 12.5002 5V9.375L12.488 9.50073C12.4299 9.78567 12.1772 9.99988 11.8752 10C11.53 10 11.2502 9.72018 11.2502 9.375V3.75C11.2502 3.40492 10.9702 3.12516 10.6252 3.125Z" fill="white"/>
</g>
</svg>
