<svg preserveAspectRatio="none" overflow="visible" style="display: block;" width="20" height="20" viewBox="0 0 20 20" fill="none" xmlns="http://www.w3.org/2000/svg">
<g id="Left Icon">
<path id="Union" d="M15.7617 10.7748C15.9432 10.4813 16.3288 10.3909 16.6223 10.5721L17.8491 11.3302C18.6392 11.8188 18.6392 12.9681 17.8491 13.4566L11.6089 17.3153C10.6017 17.9379 9.32861 17.938 8.32153 17.3153L2.14966 13.4981C1.36026 13.0095 1.36028 11.8616 2.14966 11.3729L3.39355 10.6026C3.68705 10.4213 4.07259 10.5131 4.25415 10.8065C4.43518 11.0998 4.34453 11.4843 4.05151 11.6659L2.8064 12.4361L8.97949 16.2521C9.58358 16.6256 10.3467 16.6253 10.9509 16.2521L17.1924 12.3934L15.9644 11.6341C15.6717 11.4525 15.5808 11.068 15.7617 10.7748ZM8.77808 2.42759C9.55682 1.97296 10.5201 1.97301 11.2988 2.42759L17.688 6.15806C18.5142 6.64054 18.5142 7.83382 17.688 8.31626L11.2219 12.0919L11.0742 12.1725C10.3739 12.5207 9.54928 12.5205 8.84888 12.1725L8.70117 12.0919L2.31201 8.36143C1.53714 7.90904 1.48842 6.83124 2.16675 6.30088L2.31201 6.20323L8.77808 2.42759ZM10.6689 3.50669C10.2796 3.27941 9.79733 3.27939 9.40796 3.50669L2.94189 7.28233L9.33105 11.0128C9.72043 11.24 10.2027 11.2401 10.592 11.0128L17.0581 7.23716L10.6689 3.50669Z" fill="#E3E8E8"/>
</g>
</svg>
