<svg preserveAspectRatio="none" overflow="visible" style="display: block;" width="24" height="24" viewBox="0 0 24 24" fill="none" xmlns="http://www.w3.org/2000/svg">
<g id="icon/system">
<g id="&#232;&#191;&#158;&#233;&#155;&#134;">
<path d="M12 10.5C12.8284 10.5 13.5 11.1716 13.5 12C13.5 12.8284 12.8284 13.5 12 13.5C11.1716 13.5 10.5 12.8284 10.5 12C10.5 11.1716 11.1716 10.5 12 10.5Z" fill="#1B1C1C"/>
<path fill-rule="evenodd" clip-rule="evenodd" d="M12 3C12.4142 3 12.75 3.33579 12.75 3.75V6.80273C15.0492 7.13159 16.8669 8.95078 17.1958 11.25H20.25C20.6642 11.25 21 11.5858 21 12C21 12.4142 20.6642 12.75 20.25 12.75H17.1958C16.8669 15.0492 15.0492 16.8669 12.75 17.1958V20.25C12.75 20.6642 12.4142 21 12 21C11.5858 21 11.25 20.6642 11.25 20.25V17.1958C8.95085 16.8669 7.13313 15.0492 6.8042 12.75H3.75C3.33579 12.75 3 12.4142 3 12C3 11.5858 3.33579 11.25 3.75 11.25H6.8042C7.13314 8.95078 8.95075 7.13159 11.25 6.80273V3.75C11.25 3.33579 11.5858 3 12 3ZM12 8.25C9.92893 8.25 8.25 9.92893 8.25 12C8.25 14.0711 9.92893 15.75 12 15.75C14.0711 15.75 15.75 14.0711 15.75 12C15.75 9.92893 14.0711 8.25 12 8.25Z" fill="#1B1C1C"/>
</g>
</g>
</svg>
