<svg preserveAspectRatio="none" overflow="visible" style="display: block;" width="20" height="20" viewBox="0 0 20 20" fill="none" xmlns="http://www.w3.org/2000/svg">
<g id="Icon/AspectRatio">
<g id="Union">
<path d="M15.625 12.5C15.9702 12.5 16.25 12.7798 16.25 13.125V15C16.25 15.6904 15.6904 16.25 15 16.25H13.125C12.7798 16.25 12.5 15.9702 12.5 15.625C12.5 15.2798 12.7798 15 13.125 15H15V13.125C15 12.7798 15.2798 12.5 15.625 12.5Z" fill="white"/>
<path d="M8.68286 8.42041C8.68286 8.7385 8.72658 8.9765 8.8147 9.1333C8.90717 9.29001 9.05069 9.36759 9.24438 9.36768C9.44261 9.36768 9.60613 9.29004 9.73389 9.1333C9.86161 8.97207 9.92549 8.72775 9.92554 8.40088V6.43188H10.5725V9.92554H10.0049L9.98535 9.66431C9.98535 9.60158 9.98074 9.51995 9.97192 9.42139C9.87502 9.61399 9.74718 9.75821 9.58862 9.85229C9.43001 9.95086 9.251 10 9.05273 10C8.74006 9.99993 8.49065 9.8854 8.30566 9.65698C8.12526 9.42852 8.03591 9.08578 8.03589 8.62915V6.43188H8.68286V8.42041Z" fill="white"/>
<path d="M12.1924 6.43188H13.031V7.00317H12.1924V8.66943C12.1924 8.92906 12.2253 9.11243 12.2913 9.21997C12.3617 9.32741 12.4649 9.38101 12.6013 9.3811C12.7379 9.3811 12.8593 9.33196 12.9651 9.2334L13.2092 9.75098C13.033 9.9167 12.7993 10 12.5085 10C12.2313 9.99987 12.0001 9.91043 11.8152 9.73145C11.6302 9.55232 11.5382 9.23636 11.5381 8.78418V7.00317H11.0486V6.43188H11.5381V5.43701H12.1924V6.43188Z" fill="white"/>
<path fill-rule="evenodd" clip-rule="evenodd" d="M14.8486 6.35742C15.113 6.35742 15.3513 6.42281 15.5627 6.55273C15.774 6.6826 15.9412 6.88403 16.0645 7.15698C16.1878 7.43025 16.25 7.77107 16.25 8.17871C16.25 8.5864 16.1878 8.92715 16.0645 9.20044C15.9412 9.47345 15.774 9.67479 15.5627 9.80469C15.3513 9.93461 15.113 10 14.8486 10C14.5843 9.99998 14.3443 9.93459 14.1284 9.80469C13.917 9.67477 13.7471 9.47362 13.6194 9.20044C13.496 8.92715 13.4351 8.5864 13.4351 8.17871C13.4351 7.77566 13.4961 7.43753 13.6194 7.16431C13.7472 6.89102 13.9169 6.68876 14.1284 6.55884C14.3442 6.42454 14.5844 6.35744 14.8486 6.35742ZM14.8486 6.96289C14.6328 6.96292 14.4566 7.06121 14.3201 7.2583C14.1879 7.45541 14.1223 7.76217 14.1223 8.17871C14.1223 8.59536 14.1879 8.90484 14.3201 9.10645C14.4566 9.30342 14.6329 9.40182 14.8486 9.40186C15.0601 9.40186 15.2316 9.30073 15.3638 9.09912C15.4959 8.89751 15.5627 8.59085 15.5627 8.17871C15.5627 7.76212 15.4959 7.45541 15.3638 7.2583C15.236 7.06124 15.0645 6.96289 14.8486 6.96289Z" fill="white"/>
<path fill-rule="evenodd" clip-rule="evenodd" d="M7.56958 9.92554H6.82251L6.41968 8.6084H4.82666L4.44336 9.92554H3.75L5.34302 5H5.9314L7.56958 9.92554ZM5.0061 7.99683H6.23535L5.60669 5.96802L5.0061 7.99683Z" fill="white"/>
<path fill-rule="evenodd" clip-rule="evenodd" d="M15.625 1.25C17.3509 1.25 18.75 2.64911 18.75 4.375V15.625C18.75 17.3509 17.3509 18.75 15.625 18.75H4.375C2.64911 18.75 1.25 17.3509 1.25 15.625V4.375C1.25 2.64911 2.64911 1.25 4.375 1.25H15.625ZM4.375 2.5C3.33947 2.5 2.5 3.33947 2.5 4.375V15.625C2.5 16.6605 3.33947 17.5 4.375 17.5H15.625C16.6605 17.5 17.5 16.6605 17.5 15.625V4.375C17.5 3.33947 16.6605 2.5 15.625 2.5H4.375Z" fill="white"/>
</g>
</g>
</svg>
